<svg xmlns="http://www.w3.org/2000/svg" viewBox="0 0 32 32" role="img" aria-label="Paletas de WhatsApp">
  <defs>
    <linearGradient id="berry" x1="16" y1="8" x2="16" y2="28" gradientUnits="userSpaceOnUse">
      <stop stop-color="#FF5A8A"/>
      <stop offset="1" stop-color="#D91E5A"/>
    </linearGradient>
    <linearGradient id="leaf" x1="16" y1="2" x2="16" y2="10" gradientUnits="userSpaceOnUse">
      <stop stop-color="#6BCB4A"/>
      <stop offset="1" stop-color="#3D9E2E"/>
    </linearGradient>
  </defs>
  <path d="M16 3.5c-1.2 1.8-3.4 3.2-5.8 3.6.8 1.6 2.6 2.7 4.6 2.7h2.4c2 0 3.8-1.1 4.6-2.7-2.4-.4-4.6-1.8-5.8-3.6z" fill="url(#leaf)"/>
  <path d="M13 5.2c.6-.8 1.8-.8 2.4 0" stroke="#2E7D22" stroke-width=".8" stroke-linecap="round" fill="none"/>
  <path d="M16 4.2c.7-.9 2-.9 2.7 0" stroke="#2E7D22" stroke-width=".8" stroke-linecap="round" fill="none"/>
  <path d="M19.2 5.8c.6-.8 1.8-.8 2.4 0" stroke="#2E7D22" stroke-width=".8" stroke-linecap="round" fill="none"/>
  <path d="M8.5 10.5c0-1.2 1-2.2 2.2-2.2h10.6c1.2 0 2.2 1 2.2 2.2v.8c0 5.8-3.4 10.8-7.5 12.2-4.1-1.4-7.5-6.4-7.5-12.2v-.8z" fill="url(#berry)"/>
  <ellipse cx="12" cy="14.5" rx="1" ry="1.3" fill="#FFE066" opacity=".85"/>
  <ellipse cx="16.5" cy="17" rx="1" ry="1.3" fill="#FFE066" opacity=".85"/>
  <ellipse cx="20" cy="14" rx="1" ry="1.3" fill="#FFE066" opacity=".85"/>
  <ellipse cx="14.5" cy="20" rx="1" ry="1.3" fill="#FFE066" opacity=".85"/>
  <ellipse cx="18.5" cy="21" rx="1" ry="1.3" fill="#FFE066" opacity=".85"/>
  <ellipse cx="11.5" cy="18.5" rx=".8" ry="1" fill="#FFE066" opacity=".7"/>
  <ellipse cx="21" cy="18" rx=".8" ry="1" fill="#FFE066" opacity=".7"/>
  <path d="M10 12.5c3.5-1.2 8.5-1.2 12 0" stroke="#fff" stroke-width=".6" stroke-linecap="round" opacity=".25" fill="none"/>
</svg>
