<svg xmlns="http://www.w3.org/2000/svg" viewBox="0 0 100 100" role="img" aria-label="Paletas Heladas Sin Molde">
  <rect width="100" height="100" rx="22" fill="#FFC8DC"/>
  
  <defs>
    <linearGradient id="berryBody" x1="50" y1="14" x2="50" y2="100" gradientUnits="userSpaceOnUse">
      <stop offset="0" stop-color="#FFA3CB"/>
      <stop offset="0.22" stop-color="#FF4F8B"/>
      <stop offset="0.65" stop-color="#D91852"/>
      <stop offset="1" stop-color="#8F0A32"/>
    </linearGradient>
    <radialGradient id="berryGlow" cx="34" cy="36" r="48" gradientUnits="userSpaceOnUse">
      <stop offset="0" stop-color="#FFE6F1" stop-opacity="0.8"/>
      <stop offset="1" stop-color="#FFE6F1" stop-opacity="0"/>
    </radialGradient>
    <linearGradient id="leafFill" x1="50" y1="-2" x2="50" y2="28" gradientUnits="userSpaceOnUse">
      <stop offset="0" stop-color="#C4FF7A"/>
      <stop offset="1" stop-color="#1F862C"/>
    </linearGradient>
    <linearGradient id="stemFill" x1="50" y1="-2" x2="50" y2="14" gradientUnits="userSpaceOnUse">
      <stop offset="0" stop-color="#96F060"/>
      <stop offset="1" stop-color="#146820"/>
    </linearGradient>
  </defs>

  <!-- Folhas quase no topo do canvas -->
  <g fill="url(#leafFill)">
    <path d="M50 24 L26 0 C16 8 14 20 22 26 Z"/>
    <path d="M50 24 L74 0 C84 8 86 20 78 26 Z"/>
    <path d="M50 24 L50 -2 C38 4 32 14 36 23 Z"/>
    <path d="M50 24 L10 14 C12 26 24 34 38 30 Z"/>
    <path d="M50 24 L90 14 C88 26 76 34 62 30 Z"/>
  </g>
  <path fill="url(#stemFill)" d="M46.8 1c1.2-4.2 5.2-4.2 6.4 0l1.2 5.4c.4 1.5-.85 2.8-2.35 3H48c-1.5-.2-2.75-1.5-2.35-3L46.8 1z"/>

  <!-- Corpo: quase edge-to-edge -->
  <path fill="url(#berryBody)" d="M50 100C24 92 6 68 6 38.5V32c0-7 5.6-12.6 12.6-12.6h62.8C88.4 19.4 94 25 94 32v6.5C94 68 76 92 50 100z"/>
  <path fill="url(#berryGlow)" d="M50 100C24 92 6 68 6 38.5V32c0-7 5.6-12.6 12.6-12.6h62.8C88.4 19.4 94 25 94 32v6.5C94 68 76 92 50 100z"/>
  <path fill="#FFFFFF" opacity=".36" d="M20 36c7-14 22-20 38-17-2 16-11 28-24 36-8 5.5-17 7-26 6 3-10 7-18 12-25z"/>

  <!-- Sementes menores e mais naturais -->
  <g fill="#FFF2F7">
    <ellipse cx="28" cy="42" rx="2.8" ry="3.6" transform="rotate(-24 28 42)"/>
    <ellipse cx="50" cy="38" rx="2.8" ry="3.6"/>
    <ellipse cx="72" cy="42" rx="2.8" ry="3.6" transform="rotate(24 72 42)"/>
    <ellipse cx="36" cy="56" rx="2.6" ry="3.4" transform="rotate(-14 36 56)"/>
    <ellipse cx="62" cy="54" rx="2.6" ry="3.4" transform="rotate(14 62 54)"/>
    <ellipse cx="24" cy="70" rx="2.4" ry="3.1" transform="rotate(-28 24 70)"/>
    <ellipse cx="50" cy="72" rx="2.6" ry="3.4"/>
    <ellipse cx="76" cy="68" rx="2.4" ry="3.1" transform="rotate(28 76 68)"/>
    <ellipse cx="36" cy="86" rx="2.3" ry="3" transform="rotate(-10 36 86)"/>
    <ellipse cx="62" cy="84" rx="2.3" ry="3" transform="rotate(10 62 84)"/>
  </g>

</svg>
