<?xml version="1.0" encoding="UTF-8"?>
<svg xmlns="http://www.w3.org/2000/svg" viewBox="0 0 480 360" role="img" aria-label="Mockup kit digital Postres en Vaso">
  <rect width="480" height="360" fill="#FFF7FB"/>
  <rect x="40" y="40" width="200" height="260" rx="12" fill="#FFF" stroke="#F6C9D8" stroke-width="2"/>
  <rect x="56" y="60" width="168" height="24" rx="6" fill="#EC3F7A" opacity="0.9"/>
  <rect x="56" y="96" width="140" height="8" rx="4" fill="#F6C9D8"/>
  <rect x="56" y="114" width="160" height="8" rx="4" fill="#F6C9D8"/>
  <rect x="56" y="132" width="120" height="8" rx="4" fill="#F6C9D8"/>
  <rect x="56" y="160" width="168" height="60" rx="8" fill="#FFF0F6"/>
  <text x="140" y="195" text-anchor="middle" font-family="Nunito, sans-serif" font-size="11" fill="#6D5550">Calculadora</text>
  <rect x="56" y="232" width="80" height="48" rx="8" fill="#FFF7EC" stroke="#F6C9D8"/>
  <rect x="144" y="232" width="80" height="48" rx="8" fill="#FFF7EC" stroke="#F6C9D8"/>
  <rect x="260" y="60" width="180" height="240" rx="16" fill="#2A1712"/>
  <rect x="272" y="80" width="156" height="200" rx="10" fill="#FFF7FB"/>
  <rect x="284" y="96" width="132" height="20" rx="6" fill="#EC3F7A" opacity="0.85"/>
  <rect x="284" y="128" width="100" height="6" rx="3" fill="#F6C9D8"/>
  <rect x="284" y="142" width="120" height="6" rx="3" fill="#F6C9D8"/>
  <rect x="284" y="170" width="132" height="80" rx="8" fill="#FFF0F6"/>
  <text x="350" y="218" text-anchor="middle" font-family="Nunito, sans-serif" font-size="10" fill="#6D5550">Menú WhatsApp</text>
  <text x="240" y="330" text-anchor="middle" font-family="Nunito, sans-serif" font-size="14" font-weight="700" fill="#4A2518">Kit digital completo</text>
</svg>